<svg width="466" height="152" viewBox="0 0 466 152" version="1.1" xmlns="http://www.w3.org/2000/svg" xmlns:xlink="http://www.w3.org/1999/xlink">
<title>logo</title>
<desc>Created using Figma</desc>
<g id="Canvas" transform="translate(525 207)">
<g id="logo">
<g id="Group">
<g id="Group">
<g id="Vector">
<use xlink:href="#path0_fill" transform="translate(-408.2 -83.2)" fill="#FFFFFF"/>
</g>
<g id="Vector">
<use xlink:href="#path1_fill" transform="translate(-390.1 -76.2)" fill="#FFFFFF"/>
</g>
<g id="Vector">
<use xlink:href="#path2_fill" transform="translate(-374.6 -83.2)" fill="#FFFFFF"/>
</g>
<g id="Vector">
<use xlink:href="#path3_fill" transform="translate(-365.3 -82.2)" fill="#FFFFFF"/>
</g>
<g id="Vector">
<use xlink:href="#path4_fill" transform="translate(-357.9 -75.7)" fill="#FFFFFF"/>
</g>
<g id="Vector">
<use xlink:href="#path5_fill" transform="translate(-340.6 -76.2)" fill="#FFFFFF"/>
</g>
<g id="Vector">
<use xlink:href="#path6_fill" transform="translate(-325.1 -75.7)" fill="#FFFFFF"/>
</g>
<g id="Vector">
<use xlink:href="#path3_fill" transform="translate(-312.8 -82.2)" fill="#FFFFFF"/>
</g>
<g id="Vector">
<use xlink:href="#path7_fill" transform="translate(-303.7 -76.1)" fill="#FFFFFF"/>
</g>
<g id="Vector">
<use xlink:href="#path8_fill" transform="translate(-284.9 -76)" fill="#FFFFFF"/>
</g>
<g id="Vector">
<use xlink:href="#path9_fill" transform="translate(-258.6 -83.2)" fill="#FFFFFF"/>
</g>
<g id="Vector">
<use xlink:href="#path10_fill" transform="translate(-240 -76.2)" fill="#FFFFFF"/>
</g>
<g id="Vector">
<use xlink:href="#path11_fill" transform="translate(-224.3 -76.2)" fill="#FFFFFF"/>
</g>
<g id="Vector">
<use xlink:href="#path12_fill" transform="translate(-208 -75.7)" fill="#FFFFFF"/>
</g>
<g id="Vector">
<use xlink:href="#path13_fill" transform="translate(-190.2 -80.9)" fill="#FFFFFF"/>
</g>
<g id="Vector">
<use xlink:href="#path14_fill" transform="translate(-179 -82.2)" fill="#FFFFFF"/>
</g>
<g id="Vector">
<use xlink:href="#path15_fill" transform="translate(-170 -83.5)" fill="#FFFFFF"/>
</g>
<g id="Vector">
<use xlink:href="#path16_fill" transform="translate(-159.8 -75.7)" fill="#FFFFFF"/>
</g>
<g id="Vector">
<use xlink:href="#path17_fill" transform="translate(-141.4 -83.2)" fill="#FFFFFF"/>
</g>
<g id="Vector">
<use xlink:href="#path18_fill" transform="translate(-123.1 -75.9)" fill="#FFFFFF"/>
</g>
<g id="Vector">
<use xlink:href="#path19_fill" transform="translate(-107.3 -76.2)" fill="#FFFFFF"/>
</g>
<g id="Vector">
<use xlink:href="#path20_fill" transform="translate(-90.3 -83.2)" fill="#FFFFFF"/>
</g>
<g id="Vector">
<use xlink:href="#path21_fill" transform="translate(-72.2 -76.2)" fill="#FFFFFF"/>
</g>
</g>
<g id="Vector">
<use xlink:href="#path22_fill" transform="translate(-408 -143.4)" fill="#FFFFFF"/>
</g>
<g id="Vector">
<use xlink:href="#path23_fill" transform="translate(-384.9 -144.4)" fill="#FFFFFF"/>
</g>
<g id="Vector">
<use xlink:href="#path24_fill" transform="translate(-337.8 -161.5)" fill="#FFFFFF"/>
</g>
<g id="Vector">
<use xlink:href="#path25_fill" transform="translate(-266.4 -144.4)" fill="#FFFFFF"/>
</g>
<g id="Vector">
<use xlink:href="#path26_fill" transform="translate(-222.1 -144.2)" fill="#FFFFFF"/>
</g>
<g id="Vector">
<use xlink:href="#path27_fill" transform="translate(-181.1 -155.6)" fill="#FFFFFF"/>
</g>
<g id="Vector">
<use xlink:href="#path28_fill" transform="translate(-154.7 -142.4)" fill="#FFFFFF"/>
</g>
<g id="Vector">
<use xlink:href="#path29_fill" transform="translate(-128.6 -143.6)" fill="#FFFFFF"/>
</g>
<g id="Vector">
<use xlink:href="#path30_fill" transform="translate(-91.8 -143.6)" fill="#FFFFFF"/>
</g>
<g id="Vector">
<use xlink:href="#path31_fill" transform="translate(-405.1 -160.2)" fill="#FFFFFF"/>
</g>
<g id="Vector">
<use xlink:href="#path32_fill" transform="translate(-290.8 -143.4)" fill="#FFFFFF"/>
</g>
<g id="Vector">
<use xlink:href="#path33_fill" transform="translate(-287.9 -160.2)" fill="#FFFFFF"/>
</g>
<g id="Group">
<g id="Group">
<g id="Vector">
<use xlink:href="#path34_fill" transform="translate(-525 -207)" fill="#FFFFFF"/>
</g>
</g>
<g id="Vector">
<use xlink:href="#path35_fill" transform="translate(-478.5 -160.5)" fill="#FFFFFF"/>
</g>
<g id="Group">
<g id="Vector">
<use xlink:href="#path36_fill" transform="translate(-478.5 -136.5)" fill="#FFFFFF"/>
</g>
</g>
</g>
</g>
</g>
</g>
<defs>
<path id="path0_fill" d="M 11.1 20C 10.7 21 10.1 21.8 9.2 22.2C 8.3 22.7 7.4 22.9 6.5 22.9C 5.3 22.9 4.2 22.7 3.4 22.2C 2.6 21.7 1.9 21.1 1.4 20.3C 0.899997 19.5 0.599998 18.6 0.299998 17.6C 0.0999985 16.6 3.05176e-06 15.6 3.05176e-06 14.6C 3.05176e-06 13.5 0.0999969 12.5 0.399997 11.6C 0.699997 10.7 1.1 9.9 1.6 9.2C 2.1 8.5 2.8 7.99999 3.5 7.59999C 4.3 7.19999 5.1 7 6.1 7C 7.3 7 8.4 7.30001 9.1 7.80001C 9.8 8.30001 10.5 9 10.9 9.7L 10.9 1.4L 8.8 1.4C 8.7 1.2 8.7 0.9 8.7 0.7C 8.7 0.4 8.7 0.200003 8.8 3.05176e-06L 12.8 3.05176e-06L 12.8 21.1L 14.9 21.1C 15 21.3 15 21.6 15 21.8C 15 22.1 15 22.3 14.9 22.5L 11 22.5L 11 20L 11.1 20ZM 6.6 21.4C 7.1 21.4 7.5 21.3 8.1 21.1C 8.6 20.9 9.1 20.6 9.6 20.1C 10.1 19.6 10.4 19 10.7 18.2C 11 17.4 11.1 16.3 11.1 15.1C 11.1 14.5 11.1 13.9 11 13.1C 10.9 12.4 10.7 11.7 10.4 11C 10.1 10.3 9.6 9.80001 9 9.30001C 8.4 8.90001 7.6 8.59999 6.7 8.59999C 5.7 8.59999 4.9 8.80001 4.3 9.30001C 3.7 9.70001 3.2 10.3 2.9 10.9C 2.6 11.5 2.4 12.2 2.3 12.9C 2.2 13.6 2.2 14.2 2.2 14.8C 2.2 15.7 2.3 16.6 2.5 17.4C 2.7 18.2 3 18.9 3.3 19.5C 3.7 20.1 4.1 20.6 4.7 20.9C 5.2 21.2 5.9 21.4 6.6 21.4Z"/>
<path id="path1_fill" d="M 11.7 14.7C 11.2 15 10.5 15.2 9.8 15.5C 9 15.8 8.2 15.9 7.3 15.9C 6 15.9 4.89999 15.7 3.99999 15.2C 3.09999 14.8 2.30001 14.2 1.70001 13.4C 1.10001 12.7 0.700003 11.8 0.400003 10.9C 0.100003 9.9 -6.10352e-06 8.9 -6.10352e-06 7.9C -6.10352e-06 6.9 0.100003 5.8 0.400003 4.9C 0.600003 3.9 0.999994 3.1 1.49999 2.4C 1.99999 1.7 2.69999 1.1 3.49999 0.7C 4.29999 0.3 5.2 3.05176e-06 6.3 3.05176e-06C 7.4 3.05176e-06 8.40001 0.199994 9.20001 0.599994C 10 0.999994 10.6 1.60001 11.1 2.30001C 11.6 3.00001 11.9 3.90001 12.1 4.80001C 12.3 5.80001 12.4 6.70001 12.4 7.80001L 12.4 8.4L 1.99999 8.4C 1.99999 9.2 2.2 9.89999 2.4 10.6C 2.6 11.3 3 11.9 3.4 12.4C 3.8 12.9 4.39999 13.3 4.99999 13.6C 5.59999 13.9 6.40001 14.1 7.20001 14.1C 8.30001 14.1 9.1 13.9 9.8 13.6C 10.5 13.3 11.1 13 11.7 12.6L 11.7 14.7ZM 10.4 7C 10.4 6.4 10.3 5.8 10.2 5.2C 10.1 4.6 9.9 4 9.6 3.4C 9.3 2.8 8.9 2.39999 8.4 2.09999C 7.9 1.79999 7.2 1.59999 6.3 1.59999C 5.5 1.59999 4.8 1.79999 4.3 2.09999C 3.8 2.49999 3.29999 2.9 2.99999 3.5C 2.69999 4.1 2.4 4.60001 2.3 5.30001C 2.2 5.90001 2.1 6.5 2.1 7L 10.4 7Z"/>
<path id="path2_fill" d="M 2.20001 21.1L 2.20001 1.4L 0.1 1.4C 0 1.2 -6.10352e-06 0.9 -6.10352e-06 0.7C -6.10352e-06 0.4 0 0.200003 0.1 3.05176e-06L 4.1 3.05176e-06L 4.1 21.1L 6.20001 21.1C 6.30001 21.3 6.3 21.6 6.3 21.8C 6.3 22.1 6.30001 22.3 6.20001 22.5L 0.1 22.5C 0 22.3 -6.10352e-06 22 -6.10352e-06 21.8C -6.10352e-06 21.5 0 21.3 0.1 21.1L 2.20001 21.1Z"/>
<path id="path3_fill" d="M 2.19999 20.1L 2.19999 7.9L 0.100003 7.9C 3.04729e-06 7.7 -3.05176e-06 7.4 -3.05176e-06 7.2C -3.05176e-06 6.9 3.04729e-06 6.7 0.100003 6.5L 4.1 6.5L 4.1 20.1L 6.19999 20.1C 6.29999 20.3 6.3 20.6 6.3 20.8C 6.3 21.1 6.29999 21.3 6.19999 21.5L 0.100003 21.5C 3.04729e-06 21.3 -3.05176e-06 21 -3.05176e-06 20.8C -3.05176e-06 20.5 3.04729e-06 20.3 0.100003 20.1L 2.19999 20.1ZM 2.69999 3C 2.29999 3 1.99999 2.9 1.69999 2.6C 1.39999 2.3 1.3 1.9 1.3 1.5C 1.3 1 1.39999 0.699997 1.69999 0.399997C 1.99999 0.0999969 2.29999 3.05176e-06 2.69999 3.05176e-06C 3.09999 3.05176e-06 3.39999 0.0999969 3.69999 0.399997C 3.99999 0.699997 4.1 1.1 4.1 1.5C 4.1 2 3.99999 2.3 3.69999 2.6C 3.39999 2.9 3.09999 3 2.69999 3Z"/>
<path id="path4_fill" d="M 1.7 1.4L 0.0999969 1.4C -3.05474e-06 1.2 6.10352e-06 0.9 6.10352e-06 0.7C 6.10352e-06 0.4 -3.05474e-06 0.200003 0.0999969 3.05176e-06L 5.7 3.05176e-06C 5.8 0.200003 5.79999 0.5 5.79999 0.7C 5.79999 1 5.8 1.2 5.7 1.4L 3.6 1.4L 7.7 13.4L 11.8 1.4L 9.79999 1.4C 9.69999 1.2 9.7 0.9 9.7 0.7C 9.7 0.4 9.69999 0.200003 9.79999 3.05176e-06L 15.1 3.05176e-06C 15.2 0.200003 15.2 0.5 15.2 0.7C 15.2 1 15.2 1.2 15.1 1.4L 13.5 1.4L 8.7 15.1L 6.50001 15.1L 1.7 1.4Z"/>
<path id="path5_fill" d="M 11.7 14.7C 11.2 15 10.5 15.2 9.8 15.5C 9 15.8 8.2 15.9 7.3 15.9C 6 15.9 4.89999 15.7 3.99999 15.2C 3.09999 14.8 2.30001 14.2 1.70001 13.4C 1.10001 12.7 0.700003 11.8 0.400003 10.9C 0.100003 9.9 -6.10352e-06 8.9 -6.10352e-06 7.9C -6.10352e-06 6.9 0.100003 5.8 0.400003 4.9C 0.600003 3.9 0.999994 3.1 1.49999 2.4C 1.99999 1.7 2.69999 1.1 3.49999 0.7C 4.29999 0.3 5.2 3.05176e-06 6.3 3.05176e-06C 7.4 3.05176e-06 8.40001 0.199994 9.20001 0.599994C 10 0.999994 10.6 1.60001 11.1 2.30001C 11.6 3.00001 11.9 3.90001 12.1 4.80001C 12.3 5.80001 12.4 6.70001 12.4 7.80001L 12.4 8.4L 1.99999 8.4C 1.99999 9.2 2.2 9.89999 2.4 10.6C 2.6 11.3 3 11.9 3.4 12.4C 3.8 12.9 4.39999 13.3 4.99999 13.6C 5.59999 13.9 6.40001 14.1 7.20001 14.1C 8.30001 14.1 9.1 13.9 9.8 13.6C 10.5 13.3 11.1 13 11.7 12.6L 11.7 14.7ZM 10.3 7C 10.3 6.4 10.2 5.8 10.1 5.2C 10 4.6 9.79999 4 9.49999 3.4C 9.19999 2.8 8.8 2.39999 8.3 2.09999C 7.8 1.79999 7.10001 1.59999 6.20001 1.59999C 5.40001 1.59999 4.70001 1.79999 4.20001 2.09999C 3.70001 2.49999 3.2 2.9 2.9 3.5C 2.6 4.1 2.30001 4.60001 2.20001 5.30001C 2.10001 5.90001 1.99999 6.5 1.99999 7L 10.3 7Z"/>
<path id="path6_fill" d="M 2.20001 13.6L 2.20001 1.4L 0.1 1.4C 0 1.2 -6.10352e-06 0.9 -6.10352e-06 0.7C -6.10352e-06 0.4 0 0.200003 0.1 3.05176e-06L 3.9 3.05176e-06L 3.9 3.09999C 4 2.69999 4.19999 2.4 4.49999 2C 4.79999 1.6 5.09999 1.3 5.49999 1C 5.89999 0.700003 6.30001 0.500006 6.70001 0.300006C 7.10001 0.100006 7.6 3.05176e-06 8.1 3.05176e-06C 8.5 3.05176e-06 8.8 -6.10203e-06 9.1 0.0999939C 9.4 0.0999939 9.6 0.200006 9.8 0.300006L 9.6 2.09999C 9.4 1.99999 9.19999 1.9 8.99999 1.9C 8.79999 1.9 8.39999 1.80001 7.99999 1.80001C 7.59999 1.80001 7.20001 1.89999 6.70001 2.09999C 6.30001 2.29999 5.79999 2.59999 5.49999 3.09999C 5.09999 3.59999 4.8 4.2 4.6 4.9C 4.4 5.7 4.20001 6.6 4.20001 7.7L 4.20001 13.7L 6.49999 13.7C 6.59999 13.9 6.6 14.2 6.6 14.4C 6.6 14.7 6.59999 14.9 6.49999 15.1L 0.200006 15.1C 0.100006 14.9 0.1 14.6 0.1 14.4C 0.1 14.1 0.100006 13.9 0.200006 13.7L 2.20001 13.7L 2.20001 13.6Z"/>
<path id="path7_fill" d="M 2.2 14L 2.2 1.8L 0.0999939 1.8C -6.10203e-06 1.6 3.05176e-06 1.3 3.05176e-06 1.1C 3.05176e-06 0.8 -6.10203e-06 0.600003 0.0999939 0.400003L 3.9 0.400003L 3.9 2.8C 4.3 2 4.9 1.4 5.7 0.799997C 6.5 0.199997 7.5 -6.10352e-06 8.9 -6.10352e-06C 10.4 -6.10352e-06 11.6 0.399997 12.5 1.3C 13.3 2.2 13.7 3.50001 13.7 5.20001L 13.7 14L 15.8 14C 15.9 14.2 15.9 14.5 15.9 14.7C 15.9 15 15.9 15.2 15.8 15.4L 9.80001 15.4C 9.70001 15.2 9.7 14.9 9.7 14.7C 9.7 14.4 9.70001 14.2 9.80001 14L 11.8 14L 11.8 5.99999C 11.8 5.29999 11.8 4.70001 11.7 4.20001C 11.6 3.70001 11.4 3.2 11.2 2.8C 11 2.4 10.6 2.1 10.2 1.9C 9.8 1.7 9.2 1.6 8.5 1.6C 7.9 1.6 7.4 1.7 6.9 1.9C 6.4 2.1 5.9 2.4 5.5 2.8C 5.1 3.2 4.8 3.79999 4.5 4.49999C 4.3 5.19999 4.09999 6.10001 4.09999 7.20001L 4.09999 14L 6.09999 14C 6.19999 14.2 6.2 14.5 6.2 14.7C 6.2 15 6.19999 15.2 6.09999 15.4L 0.0999939 15.4C -6.10203e-06 15.2 3.05176e-06 14.9 3.05176e-06 14.7C 3.05176e-06 14.4 -6.10203e-06 14.2 0.0999939 14L 2.2 14Z"/>
<path id="path8_fill" d="M 0.9 17.6C 1.2 17.8 1.49999 17.9 1.79999 18.1C 2.09999 18.3 2.5 18.4 2.9 18.6C 3.3 18.7 3.79999 18.9 4.29999 19C 4.79999 19.1 5.30001 19.1 6.00001 19.1C 7.70001 19.1 8.9 18.7 9.7 17.9C 10.5 17.1 10.9 15.8 10.9 13.9L 10.9 12.8C 10.5 13.8 9.80001 14.4 9.00001 14.9C 8.20001 15.3 7.3 15.6 6.4 15.6C 5.2 15.6 4.09999 15.4 3.29999 14.9C 2.49999 14.4 1.79999 13.8 1.29999 13C 0.799994 12.2 0.499994 11.3 0.299994 10.4C 0.0999939 9.39999 6.10352e-06 8.39999 6.10352e-06 7.39999C 6.10352e-06 6.29999 0.1 5.29999 0.4 4.39999C 0.7 3.49999 1.1 2.7 1.6 2C 2.1 1.3 2.80001 0.8 3.50001 0.5C 4.30001 0.1 5.1 0 6.1 0C 6.8 0 7.29999 0.0999969 7.79999 0.199997C 8.29999 0.299997 8.8 0.600003 9.2 0.800003C 9.6 1 10 1.4 10.2 1.7C 10.5 2.1 10.7 2.4 11 2.8L 11 0.300003L 14.9 0.300003C 15 0.500003 15 0.8 15 1C 15 1.3 15 1.5 14.9 1.7L 12.8 1.7L 12.8 13.4C 12.8 14.8 12.6 16 12.3 16.9C 12 17.8 11.5 18.6 10.9 19.2C 10.3 19.8 9.59999 20.2 8.79999 20.4C 7.99999 20.6 7.10001 20.8 6.00001 20.8C 4.90001 20.8 3.8 20.7 2.9 20.4C 2 20.1 1.29999 19.9 0.799994 19.6L 0.799994 17.6L 0.9 17.6ZM 6.50001 13.9C 7.00001 13.9 7.40001 13.8 8.00001 13.6C 8.50001 13.4 9.00001 13.1 9.50001 12.6C 10 12.1 10.3 11.5 10.6 10.7C 10.9 9.9 11 8.80001 11 7.60001C 11 7.00001 11 6.4 10.9 5.7C 10.8 5 10.6 4.3 10.3 3.7C 9.99999 3.1 9.5 2.50001 8.9 2.10001C 8.3 1.70001 7.5 1.39999 6.6 1.39999C 5.6 1.39999 4.8 1.60001 4.2 2.10001C 3.6 2.50001 3.09999 3.1 2.79999 3.7C 2.49999 4.3 2.3 5 2.2 5.7C 2.1 6.4 2.1 7 2.1 7.5C 2.1 8.4 2.2 9.3 2.4 10C 2.6 10.8 2.9 11.5 3.2 12C 3.6 12.6 4 13 4.6 13.4C 5 13.8 5.70001 13.9 6.50001 13.9Z"/>
<path id="path9_fill" d="M 2.20001 21.1L 2.20001 1.4L 0.1 1.4C 0 1.2 -6.10352e-06 0.9 -6.10352e-06 0.7C -6.10352e-06 0.4 0 0.200003 0.1 3.05176e-06L 4.1 3.05176e-06L 4.1 9.80001C 4.6 9.00001 5.19999 8.4 5.89999 7.9C 6.59999 7.4 7.69999 7.09999 8.89999 7.09999C 9.89999 7.09999 10.7 7.3 11.5 7.7C 12.3 8.1 12.9 8.60001 13.4 9.30001C 13.9 10 14.3 10.8 14.6 11.7C 14.9 12.6 15 13.6 15 14.6C 15 15.6 14.9 16.6 14.7 17.6C 14.5 18.6 14.1 19.5 13.7 20.3C 13.2 21.1 12.6 21.8 11.7 22.3C 10.9 22.8 9.8 23.1 8.6 23.1C 7.6 23.1 6.69999 22.9 5.89999 22.4C 4.99999 21.9 4.39999 21.2 3.99999 20.2L 3.99999 22.7L 0.1 22.7C 0 22.5 -6.10352e-06 22.2 -6.10352e-06 22C -6.10352e-06 21.7 0 21.5 0.1 21.3L 2.20001 21.3L 2.20001 21.1ZM 8.49999 21.4C 9.29999 21.4 9.89999 21.2 10.5 20.9C 11.1 20.6 11.5 20.1 11.9 19.5C 12.3 18.9 12.5 18.2 12.7 17.4C 12.9 16.6 13 15.8 13 14.8C 13 14.3 13 13.6 12.9 12.9C 12.8 12.2 12.6 11.5 12.3 10.9C 12 10.3 11.5 9.70001 10.9 9.30001C 10.3 8.90001 9.49999 8.59999 8.49999 8.59999C 7.49999 8.59999 6.70001 8.80001 6.20001 9.30001C 5.60001 9.70001 5.10001 10.3 4.80001 11C 4.50001 11.7 4.30001 12.3 4.20001 13.1C 4.10001 13.8 4.1 14.5 4.1 15.1C 4.1 16.4 4.19999 17.4 4.49999 18.2C 4.79999 19 5.2 19.7 5.6 20.1C 6 20.5 6.5 20.9 7.1 21.1C 7.5 21.3 7.99999 21.4 8.49999 21.4Z"/>
<path id="path10_fill" d="M 11.7 14.7C 11.2 15 10.5 15.2 9.79999 15.5C 8.99999 15.8 8.19999 15.9 7.29999 15.9C 5.99999 15.9 4.9 15.7 4 15.2C 3.1 14.8 2.30001 14.2 1.70001 13.4C 1.10001 12.7 0.699994 11.8 0.399994 10.9C 0.0999939 9.9 0 8.9 0 7.9C 0 6.9 0.0999939 5.8 0.399994 4.9C 0.599994 3.9 1 3.1 1.5 2.4C 2 1.7 2.7 1.1 3.5 0.7C 4.3 0.3 5.19999 3.05176e-06 6.29999 3.05176e-06C 7.39999 3.05176e-06 8.40001 0.199994 9.20001 0.599994C 10 0.999994 10.6 1.60001 11.1 2.30001C 11.6 3.00001 11.9 3.90001 12.1 4.80001C 12.3 5.80001 12.4 6.70001 12.4 7.80001L 12.4 8.4L 2 8.4C 2 9.2 2.19999 9.89999 2.39999 10.6C 2.59999 11.3 2.99999 11.9 3.39999 12.4C 3.79999 12.9 4.4 13.3 5 13.6C 5.6 13.9 6.40001 14.1 7.20001 14.1C 8.20001 14.1 9.09999 13.9 9.79999 13.6C 10.5 13.3 11.1 13 11.7 12.6L 11.7 14.7ZM 10.3 7C 10.3 6.4 10.2 5.8 10.1 5.2C 10 4.6 9.8 4 9.5 3.4C 9.2 2.9 8.79999 2.39999 8.29999 2.09999C 7.79999 1.79999 7.10001 1.59999 6.20001 1.59999C 5.40001 1.59999 4.70001 1.79999 4.20001 2.09999C 3.70001 2.49999 3.19999 2.9 2.89999 3.5C 2.59999 4.1 2.30001 4.60001 2.20001 5.30001C 2.10001 5.90001 2 6.5 2 7L 10.3 7Z"/>
<path id="path11_fill" d="M 10 13.4C 9.50001 14.1 8.89999 14.7 8.09999 15.2C 7.29999 15.7 6.19999 15.9 4.69999 15.9C 3.29999 15.9 2.1 15.5 1.3 14.8C 0.5 14.1 1.2207e-05 13 1.2207e-05 11.6C 1.2207e-05 10.9 0.1 10.3 0.3 9.80001C 0.5 9.20001 0.799994 8.70001 1.19999 8.30001C 1.59999 7.90001 2.2 7.5 2.8 7.2C 3.5 6.9 4.3 6.69999 5.3 6.59999L 9.90001 6.09999L 9.90001 5.4C 9.90001 4.8 9.79999 4.20001 9.69999 3.80001C 9.59999 3.40001 9.39999 2.89999 9.09999 2.59999C 8.79999 2.29999 8.40001 2 7.90001 1.9C 7.40001 1.7 6.80001 1.59999 6.00001 1.59999C 5.50001 1.59999 5.00001 1.70001 4.50001 1.80001C 4.00001 1.90001 3.59999 2.1 3.19999 2.2C 2.79999 2.4 2.39999 2.60001 2.09999 2.80001C 1.79999 3.00001 1.49999 3.2 1.19999 3.4L 1.19999 1.59999C 1.39999 1.49999 1.70001 1.29999 2.00001 1.09999C 2.30001 0.899994 2.69999 0.799994 3.09999 0.599994C 3.49999 0.499994 3.99999 0.3 4.59999 0.2C 5.19999 0.1 5.80001 3.05176e-06 6.40001 3.05176e-06C 6.90001 3.05176e-06 7.40001 -6.10203e-06 8.00001 0.0999939C 8.60001 0.199994 9.19999 0.400006 9.69999 0.800006C 10.2 1.20001 10.7 1.60001 11.1 2.30001C 11.5 3.00001 11.6 3.8 11.6 5L 11.6 14.1L 13.6 14.1C 13.7 14.3 13.7 14.6 13.7 14.8C 13.7 15.1 13.7 15.3 13.6 15.5L 9.8 15.5L 9.8 13.4L 10 13.4ZM 9.90001 7.59999L 5.90001 8C 4.60001 8.2 3.60001 8.5 2.90001 9C 2.20001 9.5 1.90001 10.4 1.90001 11.6C 1.90001 12.5 2.2 13.2 2.8 13.7C 3.4 14.2 4.19999 14.4 5.19999 14.4C 5.79999 14.4 6.30001 14.3 6.90001 14.1C 7.50001 13.9 8.00001 13.7 8.40001 13.3C 8.80001 13 9.20001 12.5 9.50001 12C 9.80001 11.5 9.90001 10.9 9.90001 10.3L 9.90001 7.59999Z"/>
<path id="path12_fill" d="M 2.20001 1.4L 0.100006 1.4C 6.10203e-06 1.2 5.68434e-14 0.9 5.68434e-14 0.7C 5.68434e-14 0.4 6.10203e-06 0.200003 0.100006 3.05176e-06L 4.10001 3.05176e-06L 4.10001 9.4C 4.10001 10.1 4.10001 10.7 4.20001 11.2C 4.30001 11.7 4.50001 12.2 4.70001 12.6C 4.90001 13 5.30001 13.3 5.70001 13.5C 6.10001 13.7 6.69999 13.8 7.39999 13.8C 7.89999 13.8 8.5 13.7 9 13.5C 9.5 13.3 9.99999 13 10.4 12.6C 10.8 12.2 11.1 11.6 11.4 10.9C 11.7 10.2 11.8 9.3 11.8 8.2L 11.8 1.4L 9.70001 1.4C 9.60001 1.2 9.60001 0.9 9.60001 0.7C 9.60001 0.4 9.60001 0.200003 9.70001 3.05176e-06L 13.7 3.05176e-06L 13.7 13.6L 15.8 13.6C 15.9 13.8 15.9 14.1 15.9 14.3C 15.9 14.6 15.9 14.8 15.8 15L 12 15L 12 12.6C 11.8 13 11.5 13.3 11.2 13.7C 10.9 14 10.5 14.3 10.1 14.6C 9.70001 14.9 9.20001 15.1 8.70001 15.2C 8.20001 15.3 7.59999 15.4 6.89999 15.4C 5.39999 15.4 4.19999 15 3.29999 14.1C 2.39999 13.2 2.10001 11.9 2.10001 10.1L 2.10001 1.4L 2.20001 1.4Z"/>
<path id="path13_fill" d="M 2.49999 6.6L 0.0999939 6.6C -6.10203e-06 6.4 -1.2207e-05 6.1 -1.2207e-05 5.9C -1.2207e-05 5.6 -6.10203e-06 5.4 0.0999939 5.2L 2.49999 5.2L 2.49999 1.1L 4.40001 -1.52588e-06L 4.40001 5.2L 8.09999 5.2C 8.19999 5.4 8.2 5.7 8.2 5.9C 8.2 6.2 8.19999 6.4 8.09999 6.6L 4.40001 6.6L 4.40001 16.2C 4.40001 16.8 4.49999 17.2 4.59999 17.6C 4.69999 18 4.89999 18.2 5.09999 18.4C 5.49999 18.7 5.99999 18.9 6.59999 18.9C 7.09999 18.9 7.50001 18.9 7.80001 18.8C 8.10001 18.7 8.39999 18.6 8.59999 18.5L 8.59999 20.1C 8.29999 20.3 7.99999 20.4 7.59999 20.4C 7.19999 20.5 6.80001 20.5 6.40001 20.5C 5.20001 20.5 4.19999 20.2 3.49999 19.5C 2.79999 18.8 2.49999 17.8 2.49999 16.5L 2.49999 6.6Z"/>
<path id="path14_fill" d="M 2.20001 20.1L 2.20001 7.9L 0.100006 7.9C 6.10203e-06 7.7 5.68434e-14 7.4 5.68434e-14 7.2C 5.68434e-14 6.9 6.10203e-06 6.7 0.100006 6.5L 4.10001 6.5L 4.10001 20.1L 6.20001 20.1C 6.30001 20.3 6.29999 20.6 6.29999 20.8C 6.29999 21.1 6.30001 21.3 6.20001 21.5L 0.100006 21.5C 6.10203e-06 21.3 5.68434e-14 21 5.68434e-14 20.8C 5.68434e-14 20.5 6.10203e-06 20.3 0.100006 20.1L 2.20001 20.1ZM 2.70001 3C 2.30001 3 2.00001 2.9 1.70001 2.6C 1.40001 2.3 1.29999 1.9 1.29999 1.5C 1.29999 1 1.40001 0.699997 1.70001 0.399997C 2.00001 0.0999969 2.30001 3.05176e-06 2.70001 3.05176e-06C 3.10001 3.05176e-06 3.40001 0.0999969 3.70001 0.399997C 4.00001 0.699997 4.10001 1.1 4.10001 1.5C 4.10001 2 4.00001 2.3 3.70001 2.6C 3.40001 2.9 3.10001 3 2.70001 3Z"/>
<path id="path15_fill" d="M 2.60001 21.4L 2.60001 9.2L 0.100006 9.2C 6.10203e-06 8.9 0 8.7 0 8.5C 0 8.3 6.10203e-06 8 0.100006 7.8L 2.60001 7.8L 2.60001 4.8C 2.60001 3.9 2.7 3.2 3 2.6C 3.2 2 3.49999 1.5 3.89999 1.1C 4.29999 0.699998 4.70001 0.500003 5.20001 0.300003C 5.70001 0.100003 6.20001 -4.26326e-14 6.70001 -4.26326e-14C 7.20001 -4.26326e-14 7.59999 -1.52737e-06 7.89999 0.0999985C 8.19999 0.199998 8.49999 0.300002 8.79999 0.400002L 8.79999 2C 8.69999 1.9 8.40001 1.9 8.10001 1.7C 7.80001 1.6 7.39999 1.5 6.89999 1.5C 6.19999 1.5 5.60001 1.7 5.10001 2.2C 4.60001 2.7 4.39999 3.50001 4.39999 4.60001L 4.39999 7.7L 7.79999 7.7C 7.89999 8 7.89999 8.19999 7.89999 8.39999C 7.89999 8.59999 7.89999 8.90001 7.79999 9.10001L 4.39999 9.10001L 4.39999 21.3L 7.39999 21.3C 7.49999 21.5 7.5 21.8 7.5 22C 7.5 22.3 7.49999 22.5 7.39999 22.7L 0.200012 22.7C 0.100012 22.5 0.100006 22.2 0.100006 22C 0.100006 21.7 0.100012 21.5 0.200012 21.3L 2.60001 21.3L 2.60001 21.4Z"/>
<path id="path16_fill" d="M 2.19999 1.4L 0.0999878 1.4C -1.22115e-05 1.2 1.2207e-05 0.9 1.2207e-05 0.7C 1.2207e-05 0.4 -1.22115e-05 0.200003 0.0999878 3.05176e-06L 4.09999 3.05176e-06L 4.09999 9.4C 4.09999 10.1 4.09999 10.7 4.19999 11.2C 4.29999 11.7 4.49999 12.2 4.69999 12.6C 4.89999 13 5.29999 13.3 5.69999 13.5C 6.09999 13.7 6.70001 13.8 7.40001 13.8C 7.90001 13.8 8.50001 13.7 9.00001 13.5C 9.50001 13.3 10 13 10.4 12.6C 10.8 12.2 11.1 11.6 11.4 10.9C 11.7 10.2 11.8 9.3 11.8 8.2L 11.8 1.4L 9.69999 1.4C 9.59999 1.2 9.59999 0.9 9.59999 0.7C 9.59999 0.4 9.59999 0.200003 9.69999 3.05176e-06L 13.7 3.05176e-06L 13.7 13.6L 15.8 13.6C 15.9 13.8 15.9 14.1 15.9 14.3C 15.9 14.6 15.9 14.8 15.8 15L 12.1 15L 12.1 12.6C 11.9 13 11.6 13.3 11.3 13.7C 11 14 10.6 14.3 10.2 14.6C 9.79999 14.9 9.3 15.1 8.8 15.2C 8.3 15.3 7.70001 15.4 7.00001 15.4C 5.50001 15.4 4.30001 15 3.40001 14.1C 2.50001 13.2 2.19999 11.9 2.19999 10.1L 2.19999 1.4Z"/>
<path id="path17_fill" d="M 2.19999 21.1L 2.19999 1.4L 0.100012 1.4C 1.22041e-05 1.2 6.10352e-06 0.9 6.10352e-06 0.7C 6.10352e-06 0.4 1.22041e-05 0.200003 0.100012 3.05176e-06L 4.10001 3.05176e-06L 4.10001 21.1L 6.19999 21.1C 6.29999 21.3 6.29999 21.6 6.29999 21.8C 6.29999 22.1 6.29999 22.3 6.19999 22.5L 0.100012 22.5C 1.22041e-05 22.3 6.10352e-06 22 6.10352e-06 21.8C 6.10352e-06 21.5 1.22041e-05 21.3 0.100012 21.1L 2.19999 21.1Z"/>
<path id="path18_fill" d="M 11.9 14.1C 11.7 14.3 11.4 14.4 11.1 14.6C 10.8 14.8 10.4 14.9 9.99999 15.1C 9.59999 15.3 9.1 15.4 8.6 15.5C 8.1 15.6 7.49999 15.7 6.89999 15.7C 5.79999 15.7 4.79999 15.5 3.89999 15.1C 2.99999 14.7 2.30001 14.1 1.70001 13.5C 1.10001 12.8 0.699988 12 0.399988 11.1C 0.0999878 10.2 -6.10352e-06 9.2 -6.10352e-06 8.1C -6.10352e-06 7 0.0999878 5.9 0.399988 4.9C 0.699988 3.9 1.1 2.99999 1.6 2.29999C 2.1 1.59999 2.8 0.999997 3.6 0.599997C 4.4 0.199997 5.39999 6.10352e-06 6.49999 6.10352e-06C 7.39999 6.10352e-06 8.10001 0.200006 8.80001 0.500006C 9.50001 0.800006 9.99999 1.3 10.4 1.9L 10.4 0.299994C 10.5 0.299994 10.6 0.200003 10.8 0.200003C 11 0.200003 11.1 0.200003 11.2 0.200003C 11.5 0.200003 11.7 0.199994 11.9 0.299994L 11.9 6.2C 11.7 6.3 11.4 6.29999 11.1 6.29999C 10.8 6.29999 10.5 6.3 10.3 6.2L 10.3 5.6C 10.3 4.4 9.99999 3.4 9.39999 2.6C 8.79999 1.9 7.90001 1.50001 6.70001 1.50001C 5.70001 1.50001 4.99999 1.7 4.39999 2.1C 3.79999 2.5 3.29999 3 2.99999 3.7C 2.69999 4.3 2.40001 4.99999 2.30001 5.79999C 2.20001 6.59999 2.1 7.30001 2.1 8.00001C 2.1 9.00001 2.19999 9.9 2.49999 10.6C 2.79999 11.3 3.1 12 3.6 12.5C 4.1 13 4.60001 13.4 5.20001 13.6C 5.80001 13.9 6.50001 14 7.20001 14C 7.70001 14 8.20001 13.9 8.70001 13.8C 9.20001 13.7 9.59999 13.5 9.99999 13.3C 10.4 13.1 10.8 12.9 11.1 12.7C 11.4 12.5 11.7 12.3 11.9 12.1L 11.9 14.1Z"/>
<path id="path19_fill" d="M 6.69999 15.9C 5.49999 15.9 4.49999 15.7 3.69999 15.2C 2.79999 14.7 2.09999 14.1 1.59999 13.4C 0.999988 12.7 0.600006 11.8 0.400006 10.8C 0.100006 9.80001 1.2207e-05 8.9 1.2207e-05 7.9C 1.2207e-05 6.9 0.100006 5.9 0.400006 5C 0.700006 4.1 1.09999 3.2 1.59999 2.5C 2.09999 1.8 2.89999 1.2 3.69999 0.7C 4.59999 0.2 5.59999 3.05176e-06 6.69999 3.05176e-06C 7.89999 3.05176e-06 8.89999 0.2 9.69999 0.7C 10.6 1.2 11.3 1.8 11.8 2.5C 12.4 3.2 12.8 4.1 13.1 5C 13.4 6 13.5 6.9 13.5 7.9C 13.5 8.9 13.4 9.90001 13.1 10.8C 12.8 11.7 12.4 12.6 11.9 13.4C 11.3 14.2 10.6 14.8 9.8 15.2C 8.9 15.7 7.89999 15.9 6.69999 15.9ZM 6.69999 14.3C 7.69999 14.3 8.49999 14.1 9.19999 13.6C 9.79999 13.1 10.3 12.6 10.7 11.9C 11.1 11.2 11.3 10.5 11.4 9.80001C 11.5 9.10001 11.6 8.4 11.6 7.9C 11.6 7.4 11.5 6.8 11.4 6C 11.3 5.3 11 4.6 10.7 3.9C 10.4 3.2 9.89999 2.7 9.19999 2.2C 8.59999 1.7 7.79999 1.5 6.69999 1.5C 5.59999 1.5 4.89999 1.7 4.19999 2.2C 3.59999 2.7 3.09999 3.2 2.69999 3.9C 2.29999 4.6 2.10001 5.3 2.00001 6C 1.90001 6.7 1.8 7.3 1.8 7.9C 1.8 8.4 1.90001 9.00001 2.00001 9.80001C 2.10001 10.5 2.39999 11.2 2.69999 11.9C 2.99999 12.6 3.49999 13.1 4.19999 13.6C 4.89999 14.1 5.59999 14.3 6.69999 14.3Z"/>
<path id="path20_fill" d="M 11.1 20C 10.7 21 10.1 21.8 9.19999 22.2C 8.29999 22.6 7.40001 22.9 6.50001 22.9C 5.30001 22.9 4.20001 22.7 3.40001 22.2C 2.60001 21.7 1.90001 21.1 1.40001 20.3C 0.900006 19.5 0.6 18.6 0.3 17.6C 0 16.6 1.2207e-05 15.6 1.2207e-05 14.6C 1.2207e-05 13.5 0.100006 12.5 0.400006 11.6C 0.700006 10.7 1.09999 9.9 1.59999 9.2C 2.09999 8.5 2.80001 7.99999 3.50001 7.59999C 4.20001 7.19999 5.09999 7 6.09999 7C 7.29999 7 8.39999 7.30001 9.09999 7.80001C 9.79999 8.30001 10.5 9 10.9 9.7L 10.9 1.4L 8.8 1.4C 8.7 1.2 8.69999 0.9 8.69999 0.7C 8.69999 0.4 8.7 0.200003 8.8 3.05176e-06L 12.8 3.05176e-06L 12.8 21.1L 14.9 21.1C 15 21.3 15 21.6 15 21.8C 15 22.1 15 22.3 14.9 22.5L 11 22.5L 11 20L 11.1 20ZM 6.50001 21.4C 7.00001 21.4 7.40001 21.3 8.00001 21.1C 8.50001 20.9 9.00001 20.6 9.50001 20.1C 10 19.6 10.3 19 10.6 18.2C 10.9 17.4 11 16.3 11 15.1C 11 14.5 11 13.9 10.9 13.1C 10.8 12.4 10.6 11.7 10.3 11C 10 10.3 9.50001 9.80001 8.90001 9.30001C 8.30001 8.90001 7.49999 8.59999 6.59999 8.59999C 5.59999 8.59999 4.79999 8.80001 4.19999 9.30001C 3.59999 9.70001 3.1 10.3 2.8 10.9C 2.5 11.5 2.29999 12.2 2.19999 12.9C 2.09999 13.6 2.09999 14.2 2.09999 14.8C 2.09999 15.7 2.20001 16.6 2.40001 17.4C 2.60001 18.2 2.89999 18.9 3.19999 19.5C 3.59999 20.1 3.99999 20.6 4.59999 20.9C 5.09999 21.2 5.80001 21.4 6.50001 21.4Z"/>
<path id="path21_fill" d="M 11.7 14.7C 11.2 15 10.5 15.2 9.80001 15.5C 9.00001 15.8 8.20001 15.9 7.30001 15.9C 6.00001 15.9 4.89999 15.7 3.99999 15.2C 3.09999 14.8 2.3 14.2 1.7 13.4C 1.1 12.7 0.700012 11.8 0.400012 10.9C 0.100012 9.9 -1.2207e-05 8.9 -1.2207e-05 7.9C -1.2207e-05 6.9 0.100012 5.8 0.400012 4.9C 0.600012 3.9 0.999988 3.1 1.49999 2.4C 1.99999 1.7 2.69999 1.1 3.49999 0.7C 4.29999 0.3 5.20001 3.05176e-06 6.30001 3.05176e-06C 7.40001 3.05176e-06 8.4 0.199994 9.2 0.599994C 10 0.999994 10.6 1.60001 11.1 2.30001C 11.6 3.00001 11.9 3.90001 12.1 4.80001C 12.3 5.80001 12.4 6.70001 12.4 7.80001L 12.4 8.4L 1.99999 8.4C 1.99999 9.2 2.20001 9.89999 2.40001 10.6C 2.60001 11.3 3.00001 11.9 3.40001 12.4C 3.80001 12.9 4.39999 13.3 4.99999 13.6C 5.59999 13.9 6.4 14.1 7.2 14.1C 8.2 14.1 9.10001 13.9 9.80001 13.6C 10.5 13.3 11.1 13 11.7 12.6L 11.7 14.7ZM 10.3 7C 10.3 6.4 10.2 5.8 10.1 5.2C 9.99999 4.6 9.79999 4 9.49999 3.4C 9.19999 2.9 8.80001 2.39999 8.30001 2.09999C 7.80001 1.79999 7.1 1.59999 6.2 1.59999C 5.4 1.59999 4.7 1.79999 4.2 2.09999C 3.7 2.49999 3.20001 2.9 2.90001 3.5C 2.60001 4.1 2.3 4.60001 2.2 5.30001C 2.1 5.90001 1.99999 6.5 1.99999 7L 10.3 7Z"/>
<path id="path22_fill" d="M 4.8 33L 4.8 6.6L 0.599998 6.6C 0.199998 5.5 1.42109e-14 4.4 1.42109e-14 3.3C 1.42109e-14 2.2 0.199998 1.1 0.599998 -1.52588e-06L 14.6 -1.52588e-06L 14.6 32.9L 18.8 32.9C 19.2 34 19.4 35.1 19.4 36.2C 19.4 37.3 19.2 38.4 18.8 39.5L 0.599998 39.5C 0.199998 38.4 1.42109e-14 37.3 1.42109e-14 36.2C 1.42109e-14 35.1 0.199998 34.1 0.599998 32.9L 4.8 32.9L 4.8 33Z"/>
<path id="path23_fill" d="M 5.4 34L 5.4 7.6L 0.799994 7.6C 0.399994 6.5 0.200003 5.4 0.200003 4.3C 0.200003 3.2 0.399994 2.1 0.799994 0.999998L 13.8 0.999998L 14.2 5.6C 15.1 4.2 16.5 3 18.4 1.8C 20.3 0.600001 22.7 -1.52588e-06 25.6 -1.52588e-06C 29.9 -1.52588e-06 33.2 1.2 35.4 3.7C 37.7 6.2 38.8 9.7 38.8 14.3L 38.8 33.9L 43.4 33.9C 43.8 35 44 36.1 44 37.2C 44 38.3 43.8 39.4 43.4 40.5L 25.1 40.5C 24.7 39.4 24.5 38.3 24.5 37.2C 24.5 36.1 24.7 35.1 25.1 33.9L 29 33.9L 29 15.4C 29 12.8 28.6 10.8 27.8 9.4C 27 8 25.4 7.3 22.9 7.3C 22 7.3 21.1 7.5 20.2 7.8C 19.3 8.1 18.4 8.6 17.7 9.4C 16.9 10.2 16.3 11.3 15.8 12.6C 15.3 14 15 15.7 15 17.9L 15 33.9L 18.9 33.9C 19.3 35 19.5 36.1 19.5 37.2C 19.5 38.3 19.3 39.4 18.9 40.5L 0.599997 40.5C 0.199997 39.4 6.10352e-06 38.3 6.10352e-06 37.2C 6.10352e-06 36.1 0.199997 35.1 0.599997 33.9L 5.4 33.9L 5.4 34Z"/>
<path id="path24_fill" d="M 27.6 53C 25 56.8 21.4 58.7 16.8 58.7C 13.6 58.7 10.9 58 8.69999 56.7C 6.49999 55.4 4.8 53.7 3.5 51.7C 2.2 49.7 1.3 47.4 0.8 45C 0.3 42.5 -3.05176e-06 40.2 -3.05176e-06 37.8C -3.05176e-06 34.9 0.400003 32.2 1.1 29.7C 1.9 27.2 3.00001 25 4.40001 23.1C 5.80001 21.2 7.6 19.8 9.8 18.7C 11.9 17.6 14.4 17.1 17.1 17.1C 19.2 17.1 21.2 17.5 22.9 18.4C 24.7 19.2 26 20.4 27 21.9L 27 6.6L 22.7 6.6C 22.2 5.5 22 4.5 22 3.3C 22 2.2 22.2 1.1 22.7 -7.10543e-15L 36.7 -7.10543e-15L 36.7 51L 41.1 51C 41.5 52.1 41.7 53.2 41.7 54.3C 41.7 55.4 41.5 56.5 41.1 57.6L 27.9 57.6L 27.6 53ZM 18.6 51.5C 19.4 51.5 20.2 51.3 21.2 51C 22.2 50.6 23.1 50 24 49C 24.9 48 25.7 46.7 26.3 44.9C 26.9 43.2 27.2 40.9 27.2 38.2C 27.2 37.1 27.1 35.8 26.9 34.2C 26.7 32.7 26.3 31.2 25.8 29.7C 25.2 28.3 24.4 27 23.2 26C 22.1 25 20.5 24.5 18.6 24.5C 16.6 24.5 15 25 13.8 26C 12.6 27 11.8 28.3 11.1 29.7C 10.5 31.2 10.1 32.7 10 34.4C 9.8 36 9.8 37.5 9.8 38.7C 9.8 42.5 10.6 45.6 12.1 47.9C 13.8 50.3 15.9 51.5 18.6 51.5Z"/>
<path id="path25_fill" d="M 2.4 42.6C 3.4 43.2 4.3 43.7 5.4 44.2C 6.4 44.7 7.50001 45.2 8.60001 45.6C 9.70001 46 11 46.4 12.4 46.6C 13.8 46.9 15.3 47 17 47C 18.5 47 19.9 46.8 21.1 46.5C 22.3 46.2 23.4 45.6 24.3 44.7C 25.2 43.8 25.8 42.6 26.3 41.1C 26.8 39.6 27 37.5 27 35.1C 25.7 37 24.2 38.4 22.6 39.2C 21 40 19 40.5 16.8 40.5C 13.6 40.5 10.9 39.9 8.69999 38.6C 6.49999 37.4 4.80001 35.8 3.50001 33.8C 2.20001 31.8 1.29999 29.6 0.799994 27.2C 0.299994 24.8 6.10352e-06 22.4 6.10352e-06 20.1C 6.10352e-06 17.2 0.400012 14.5 1.10001 12.1C 1.90001 9.6 3 7.5 4.4 5.7C 5.8 3.9 7.59999 2.5 9.79999 1.5C 11.9 0.499998 14.4 -1.52588e-06 17.1 -1.52588e-06C 19.5 -1.52588e-06 21.7 0.499997 23.6 1.6C 25.5 2.6 26.8 4 27.7 5.7L 28.1 1.1L 41.4 1.1C 41.8 2.2 42 3.3 42 4.4C 42 5.5 41.8 6.6 41.4 7.7L 36.8 7.7L 36.8 34.6C 36.8 38.3 36.3 41.4 35.4 43.9C 34.5 46.4 33.2 48.4 31.5 50C 29.8 51.5 27.8 52.6 25.5 53.3C 23.2 54 20.6 54.3 17.7 54.3C 14.4 54.3 11.4 53.9 8.79999 53.2C 6.09999 52.5 4.00001 51.7 2.50001 50.9L 2.50001 42.6L 2.4 42.6ZM 18.6 33.3C 19.4 33.3 20.2 33.1 21.2 32.7C 22.2 32.3 23.1 31.7 24 30.7C 24.9 29.8 25.7 28.5 26.3 26.8C 26.9 25.2 27.2 23 27.2 20.5C 27.2 19.4 27.1 18.1 26.9 16.6C 26.7 15.1 26.3 13.7 25.8 12.3C 25.2 10.9 24.4 9.8 23.2 8.8C 22.1 7.8 20.5 7.4 18.6 7.4C 16.6 7.4 15 7.9 13.8 8.8C 12.6 9.8 11.8 10.9 11.1 12.3C 10.5 13.7 10.1 15.2 10 16.8C 9.80001 18.4 9.79999 19.8 9.79999 21C 9.79999 22.8 10 24.4 10.4 25.9C 10.8 27.4 11.4 28.7 12.1 29.8C 12.8 30.9 13.7 31.8 14.8 32.4C 16 33 17.2 33.3 18.6 33.3Z"/>
<path id="path26_fill" d="M 19.3 41.4C 16 41.4 13.1 40.8 10.6 39.6C 8.1 38.4 6.2 36.8 4.6 34.8C 3 32.8 1.9 30.6 1.1 28.1C 0.4 25.6 -6.10352e-06 23.1 -6.10352e-06 20.6C -6.10352e-06 18.1 0.4 15.6 1.1 13.1C 1.8 10.6 3 8.4 4.6 6.5C 6.2 4.6 8.2 3 10.6 1.8C 13 0.599998 15.9 -7.62939e-07 19.3 -7.62939e-07C 22.6 -7.62939e-07 25.5 0.599998 28 1.8C 30.4 3 32.4 4.6 34 6.5C 35.5 8.4 36.7 10.7 37.5 13.1C 38.3 15.6 38.6 18.1 38.6 20.6C 38.6 23.1 38.2 25.6 37.5 28.1C 36.7 30.6 35.6 32.8 34 34.8C 32.5 36.8 30.5 38.4 28 39.6C 25.5 40.8 22.7 41.4 19.3 41.4ZM 19.3 34.2C 21.2 34.2 22.7 33.7 23.9 32.8C 25.1 31.9 26 30.8 26.7 29.4C 27.4 28 27.9 26.6 28.1 25C 28.4 23.4 28.5 22 28.5 20.6C 28.5 19.2 28.4 17.8 28.1 16.3C 27.8 14.8 27.3 13.3 26.7 11.9C 26 10.5 25.1 9.4 23.9 8.5C 22.7 7.6 21.2 7.1 19.3 7.1C 17.4 7.1 15.9 7.6 14.7 8.5C 13.5 9.4 12.6 10.5 11.9 11.9C 11.2 13.3 10.7 14.7 10.5 16.3C 10.2 17.9 10.1 19.3 10.1 20.6C 10.1 21.9 10.2 23.4 10.5 25C 10.8 26.6 11.3 28.1 11.9 29.4C 12.6 30.8 13.5 31.9 14.7 32.8C 15.9 33.7 17.5 34.2 19.3 34.2Z"/>
<path id="path27_fill" d="M 6.39999 16.9L 0.300012 16.9C 0.100012 16.3 -6.10352e-06 15.7 -6.10352e-06 15.1C -6.10352e-06 14.4 0.100012 13.8 0.300012 13.3L 6.39999 13.3L 6.39999 2.7L 11.3 1.52588e-06L 11.3 13.3L 20.7 13.3C 20.9 13.9 21 14.5 21 15.1C 21 15.8 20.9 16.4 20.7 16.9L 11.3 16.9L 11.3 41.5C 11.3 43 11.5 44.1 11.8 45C 12.1 45.9 12.6 46.5 13.1 47C 14.1 47.8 15.3 48.2 16.8 48.2C 18 48.2 19 48.1 19.8 47.8C 20.6 47.5 21.3 47.3 21.8 47L 21.8 51C 21.1 51.4 20.2 51.7 19.1 51.9C 18 52.1 17.1 52.2 16.1 52.2C 12.9 52.2 10.5 51.3 8.80001 49.5C 7.10001 47.7 6.30001 45.2 6.30001 41.9L 6.30001 16.9L 6.39999 16.9Z"/>
<path id="path28_fill" d="M 5.80001 34.9L 5.80001 3.7L 0.400012 3.7C 0.200012 3.1 0.0999939 2.5 0.0999939 1.9C 0.0999939 1.2 0.200012 0.599997 0.400012 0.0999969L 9.99999 0.0999969L 9.99999 7.9C 10.4 7 10.9 6.1 11.6 5.1C 12.3 4.2 13.1 3.3 14.1 2.6C 15 1.8 16.1 1.2 17.2 0.700003C 18.3 0.200003 19.6 -1.52588e-06 20.9 -1.52588e-06C 21.9 -1.52588e-06 22.7 0.100003 23.3 0.200003C 24 0.300003 24.5 0.499997 25 0.599997L 24.5 5.3C 24.1 5.1 23.6 4.9 23 4.7C 22.4 4.5 21.5 4.4 20.3 4.4C 19.2 4.4 18.1 4.7 17 5.2C 15.9 5.7 14.8 6.6 13.8 7.7C 12.8 8.9 12 10.4 11.4 12.4C 10.8 14.3 10.5 16.7 10.5 19.5L 10.5 34.9L 16.3 34.9C 16.5 35.5 16.6 36.1 16.6 36.7C 16.6 37.4 16.5 38 16.3 38.5L 0.300006 38.5C 0.100006 37.9 -1.2207e-05 37.3 -1.2207e-05 36.7C -1.2207e-05 36 0.100006 35.4 0.300006 34.9L 5.80001 34.9Z"/>
<path id="path29_fill" d="M 30 37.7C 28.7 38.4 27 39.1 25 39.7C 23 40.4 20.9 40.7 18.7 40.7C 15.4 40.7 12.5 40.1 10.2 39C 7.80001 37.9 5.89999 36.4 4.39999 34.5C 2.89999 32.6 1.8 30.4 1.1 28C 0.4 25.6 -6.10352e-06 23 -6.10352e-06 20.3C -6.10352e-06 17.6 0.299988 15.1 0.899988 12.6C 1.49999 10.1 2.50001 8 3.80001 6.1C 5.10001 4.3 6.80001 2.8 8.80001 1.7C 10.8 0.599998 13.2 1.52588e-06 16 1.52588e-06C 18.9 1.52588e-06 21.4 0.5 23.4 1.6C 25.4 2.7 27 4.2 28.3 6C 29.5 7.8 30.4 10 31 12.4C 31.5 14.8 31.8 17.4 31.8 20L 31.8 21.5L 5.20001 21.5C 5.30001 23.5 5.70001 25.4 6.30001 27.2C 6.90001 29 7.80001 30.6 8.80001 31.9C 9.90001 33.2 11.3 34.3 12.9 35.1C 14.5 35.9 16.4 36.3 18.6 36.3C 21.3 36.3 23.5 35.9 25.2 35.1C 26.9 34.3 28.6 33.5 30 32.6L 30 37.7ZM 26.5 18C 26.5 16.5 26.4 15 26.1 13.4C 25.8 11.8 25.3 10.3 24.5 8.9C 23.7 7.5 22.7 6.4 21.3 5.5C 19.9 4.6 18.2 4.2 16 4.2C 14 4.2 12.3 4.7 10.9 5.6C 9.49999 6.5 8.4 7.7 7.6 9.1C 6.7 10.5 6.10001 12 5.70001 13.6C 5.30001 15.2 5.1 16.7 5.1 18L 26.5 18Z"/>
<path id="path30_fill" d="M 30 37.7C 28.7 38.4 27 39.1 25 39.7C 23 40.4 20.9 40.7 18.7 40.7C 15.4 40.7 12.5 40.1 10.2 39C 7.79999 37.9 5.90001 36.4 4.40001 34.5C 2.90001 32.6 1.79999 30.4 1.09999 28C 0.399988 25.6 1.2207e-05 23 1.2207e-05 20.3C 1.2207e-05 17.6 0.300006 15.1 0.900006 12.6C 1.50001 10.1 2.5 8 3.8 6.1C 5.1 4.3 6.8 2.8 8.8 1.7C 10.8 0.599998 13.2 1.52588e-06 16 1.52588e-06C 18.9 1.52588e-06 21.4 0.5 23.4 1.6C 25.4 2.7 27 4.2 28.3 6C 29.5 7.8 30.4 10 31 12.4C 31.5 14.8 31.8 17.4 31.8 20L 31.8 21.5L 5.19999 21.5C 5.29999 23.5 5.7 25.4 6.3 27.2C 6.9 29 7.8 30.6 8.8 31.9C 9.9 33.2 11.3 34.3 12.9 35.1C 14.5 35.9 16.4 36.3 18.6 36.3C 21.3 36.3 23.5 35.9 25.2 35.1C 26.9 34.3 28.6 33.5 30 32.6L 30 37.7ZM 26.5 18C 26.5 16.5 26.4 15 26.1 13.4C 25.8 11.8 25.3 10.3 24.5 8.9C 23.7 7.5 22.7 6.4 21.3 5.5C 19.9 4.6 18.2 4.2 16 4.2C 14 4.2 12.3 4.7 10.9 5.6C 9.50001 6.5 8.39999 7.7 7.59999 9.1C 6.69999 10.5 6.09999 12 5.69999 13.6C 5.29999 15.2 5.09999 16.7 5.09999 18L 26.5 18Z"/>
<path id="path31_fill" d="M 5.8 11.6C 9.00325 11.6 11.6 9.00325 11.6 5.8C 11.6 2.59675 9.00325 0 5.8 0C 2.59675 0 0 2.59675 0 5.8C 0 9.00325 2.59675 11.6 5.8 11.6Z"/>
<path id="path32_fill" d="M 4.8 33L 4.8 6.6L 0.600003 6.6C 0.200003 5.5 -3.05176e-06 4.4 -3.05176e-06 3.3C -3.05176e-06 2.2 0.200003 1.1 0.600003 -1.52588e-06L 14.6 -1.52588e-06L 14.6 32.9L 18.8 32.9C 19.2 34 19.4 35.1 19.4 36.2C 19.4 37.3 19.2 38.4 18.8 39.5L 0.600003 39.5C 0.200003 38.4 -3.05176e-06 37.3 -3.05176e-06 36.2C -3.05176e-06 35.1 0.200003 34.1 0.600003 32.9L 4.8 32.9L 4.8 33Z"/>
<path id="path33_fill" d="M 5.79999 11.6C 9.00325 11.6 11.6 9.00325 11.6 5.8C 11.6 2.59675 9.00325 0 5.79999 0C 2.59674 0 6.10352e-06 2.59675 6.10352e-06 5.8C 6.10352e-06 9.00325 2.59674 11.6 5.79999 11.6Z"/>
<path id="path34_fill" d="M 76.6 98.6C 74.5 98.6 72.5 97.5 71.3 95.6C 69.6 92.7 70.5 88.9 73.4 87.2C 85.7 79.9 93 66.9 93 52.6C 93 30.3 74.9 12.2 52.6 12.2C 30.3 12.2 12.3 30.4 12.3 52.6C 12.3 66.8 19.6 79.8 31.8 87.2C 34.7 89 35.6 92.7 33.9 95.6C 32.1 98.5 28.4 99.4 25.5 97.7C 9.5 88 0 71.2 0 52.6C 0 23.6 23.6 0 52.6 0C 81.6 0 105.2 23.6 105.2 52.6C 105.2 71 95.4 88.2 79.7 97.7C 78.7 98.3 77.6 98.6 76.6 98.6Z"/>
<path id="path35_fill" d="M 6.1 12.2C 9.46894 12.2 12.2 9.46894 12.2 6.1C 12.2 2.73106 9.46894 0 6.1 0C 2.73106 0 0 2.73106 0 6.1C 0 9.46894 2.73106 12.2 6.1 12.2Z"/>
<path id="path36_fill" d="M 6.1 57.2C 2.7 57.2 0 54.5 0 51.1L 0 6.1C 0 2.7 2.7 -1.42109e-14 6.1 -1.42109e-14C 9.5 -1.42109e-14 12.2 2.7 12.2 6.1L 12.2 51.1C 12.3 54.5 9.5 57.2 6.1 57.2Z"/>
</defs>
</svg>
